<svg xmlns="http://www.w3.org/2000/svg" width="509" height="81">
         <defs>
            <style type="text/css">
    @namespace "http://www.w3.org/2000/svg";
    .line                 {fill: none; stroke: #332900; stroke-width: 1;}
    .bold-line            {stroke: #141000; shape-rendering: crispEdges; stroke-width: 2;}
    .thin-line            {stroke: #1F1800; shape-rendering: crispEdges}
    .filled               {fill: #332900; stroke: none;}
    text.terminal         {font-family: Verdana, Sans-serif;
                            font-size: 12px;
                            fill: #141000;
                            font-weight: bold;
                          }
    text.nonterminal      {font-family: Verdana, Sans-serif;
                            font-size: 12px;
                            fill: #1A1400;
                            font-weight: normal;
                          }
    text.regexp           {font-family: Verdana, Sans-serif;
                            font-size: 12px;
                            fill: #1F1800;
                            font-weight: normal;
                          }
    rect, circle, polygon {fill: #332900; stroke: #332900;}
    rect.terminal         {fill: #FFDB4D; stroke: #332900; stroke-width: 1;}
    rect.nonterminal      {fill: #FFEC9E; stroke: #332900; stroke-width: 1;}
    rect.text             {fill: none; stroke: none;}
    polygon.regexp        {fill: #FFF4C7; stroke: #332900; stroke-width: 1;}
  </style>
         </defs>
         <polygon points="9 17 1 13 1 21"/>
         <polygon points="17 17 9 13 9 21"/>
         <rect x="31" y="3" width="38" height="32" rx="10"/>
         <rect x="29" y="1" width="38" height="32" class="terminal" rx="10"/>
         <text class="terminal" x="39" y="21">for</text><a xmlns:xlink="http://www.w3.org/1999/xlink" xlink:href="#Query" xlink:title="Query">
            <rect x="89" y="3" width="58" height="32"/>
            <rect x="87" y="1" width="58" height="32" class="nonterminal"/>
            <text class="nonterminal" x="97" y="21">Query</text></a><rect x="187" y="3" width="36" height="32" rx="10"/>
         <rect x="185" y="1" width="36" height="32" class="terminal" rx="10"/>
         <text class="terminal" x="195" y="21">do</text>
         <rect x="187" y="47" width="24" height="32" rx="10"/>
         <rect x="185" y="45" width="24" height="32" class="terminal" rx="10"/>
         <text class="terminal" x="195" y="65">:</text><a xmlns:xlink="http://www.w3.org/1999/xlink" xlink:href="#Statements" xlink:title="Statements">
            <rect x="263" y="3" width="94" height="32"/>
            <rect x="261" y="1" width="94" height="32" class="nonterminal"/>
            <text class="nonterminal" x="271" y="21">Statements</text></a><rect x="397" y="3" width="64" height="32" rx="10"/>
         <rect x="395" y="1" width="64" height="32" class="terminal" rx="10"/>
         <text class="terminal" x="405" y="21">endfor</text>
         <rect x="397" y="47" width="44" height="32" rx="10"/>
         <rect x="395" y="45" width="44" height="32" class="terminal" rx="10"/>
         <text class="terminal" x="405" y="65">end</text>
         <path xmlns:svg="http://www.w3.org/2000/svg" class="line" d="m17 17 h2 m0 0 h10 m38 0 h10 m0 0 h10 m58 0 h10 m20 0 h10 m36 0 h10 m-76 0 h20 m56 0 h20 m-96 0 q10 0 10 10 m76 0 q0 -10 10 -10 m-86 10 v24 m76 0 v-24 m-76 24 q0 10 10 10 m56 0 q10 0 10 -10 m-66 10 h10 m24 0 h10 m0 0 h12 m20 -44 h10 m94 0 h10 m20 0 h10 m64 0 h10 m-104 0 h20 m84 0 h20 m-124 0 q10 0 10 10 m104 0 q0 -10 10 -10 m-114 10 v24 m104 0 v-24 m-104 24 q0 10 10 10 m84 0 q10 0 10 -10 m-94 10 h10 m44 0 h10 m0 0 h20 m23 -44 h-3"/>
         <polygon points="499 17 507 13 507 21"/>
         <polygon points="499 17 491 13 491 21"/></svg>