<svg xmlns="http://www.w3.org/2000/svg" width="363" height="189">
         <defs>
            <style type="text/css">
    @namespace "http://www.w3.org/2000/svg";
    .line                 {fill: none; stroke: #332900; stroke-width: 1;}
    .bold-line            {stroke: #141000; shape-rendering: crispEdges; stroke-width: 2;}
    .thin-line            {stroke: #1F1800; shape-rendering: crispEdges}
    .filled               {fill: #332900; stroke: none;}
    text.terminal         {font-family: Verdana, Sans-serif;
                            font-size: 12px;
                            fill: #141000;
                            font-weight: bold;
                          }
    text.nonterminal      {font-family: Verdana, Sans-serif;
                            font-size: 12px;
                            fill: #1A1400;
                            font-weight: normal;
                          }
    text.regexp           {font-family: Verdana, Sans-serif;
                            font-size: 12px;
                            fill: #1F1800;
                            font-weight: normal;
                          }
    rect, circle, polygon {fill: #332900; stroke: #332900;}
    rect.terminal         {fill: #FFDB4D; stroke: #332900; stroke-width: 1;}
    rect.nonterminal      {fill: #FFEC9E; stroke: #332900; stroke-width: 1;}
    rect.text             {fill: none; stroke: none;}
    polygon.regexp        {fill: #FFF4C7; stroke: #332900; stroke-width: 1;}
  </style>
         </defs>
    <polygon points="9 5 1 1 1 9"/>
    <polygon points="17 5 9 1 9 9"/>
    <rect x="51" y="23" width="28" height="32" rx="10"/>
    <rect x="49" y="21" width="28" height="32" class="terminal" rx="10"/>
    <text class="terminal" x="59" y="41">if</text><a xmlns:xlink="http://www.w3.org/1999/xlink" xlink:href="#IfCore" xlink:title="IfCore">
       <rect x="99" y="23" width="58" height="32"/>
       <rect x="97" y="21" width="58" height="32" class="nonterminal"/>
       <text class="nonterminal" x="107" y="41">IfCore</text></a><rect x="197" y="23" width="54" height="32" rx="10"/>
    <rect x="195" y="21" width="54" height="32" class="terminal" rx="10"/>
    <text class="terminal" x="205" y="41">endif</text>
    <rect x="197" y="67" width="44" height="32" rx="10"/>
    <rect x="195" y="65" width="44" height="32" class="terminal" rx="10"/>
    <text class="terminal" x="205" y="85">end</text>
    <rect x="51" y="111" width="50" height="32" rx="10"/>
    <rect x="49" y="109" width="50" height="32" class="terminal" rx="10"/>
    <text class="terminal" x="59" y="129">ifnot</text><a xmlns:xlink="http://www.w3.org/1999/xlink" xlink:href="#IfCore" xlink:title="IfCore">
       <rect x="121" y="111" width="58" height="32"/>
       <rect x="119" y="109" width="58" height="32" class="nonterminal"/>
       <text class="nonterminal" x="129" y="129">IfCore</text></a><rect x="219" y="111" width="76" height="32" rx="10"/>
    <rect x="217" y="109" width="76" height="32" class="terminal" rx="10"/>
    <text class="terminal" x="227" y="129">endifnot</text>
    <rect x="219" y="155" width="44" height="32" rx="10"/>
    <rect x="217" y="153" width="44" height="32" class="terminal" rx="10"/>
    <text class="terminal" x="227" y="173">end</text>
    <path class="line" d="m17 5 h2 m20 0 h10 m0 0 h274 m-304 0 h20 m284 0 h20 m-324 0 q10 0 10 10 m304 0 q0 -10 10 -10 m-314 10 v12 m304 0 v-12 m-304 12 q0 10 10 10 m284 0 q10 0 10 -10 m-294 10 h10 m28 0 h10 m0 0 h10 m58 0 h10 m20 0 h10 m54 0 h10 m-94 0 h20 m74 0 h20 m-114 0 q10 0 10 10 m94 0 q0 -10 10 -10 m-104 10 v24 m94 0 v-24 m-94 24 q0 10 10 10 m74 0 q10 0 10 -10 m-84 10 h10 m44 0 h10 m0 0 h10 m20 -44 h44 m-294 -10 v20 m304 0 v-20 m-304 20 v68 m304 0 v-68 m-304 68 q0 10 10 10 m284 0 q10 0 10 -10 m-294 10 h10 m50 0 h10 m0 0 h10 m58 0 h10 m20 0 h10 m76 0 h10 m-116 0 h20 m96 0 h20 m-136 0 q10 0 10 10 m116 0 q0 -10 10 -10 m-126 10 v24 m116 0 v-24 m-116 24 q0 10 10 10 m96 0 q10 0 10 -10 m-106 10 h10 m44 0 h10 m0 0 h32 m43 -164 h-3"/>
    <polygon points="353 5 361 1 361 9"/>
    <polygon points="353 5 345 1 345 9"/></svg>