<svg xmlns="http://www.w3.org/2000/svg" width="897" height="243">
         <defs>
            <style type="text/css">
    @namespace "http://www.w3.org/2000/svg";
    .line                 {fill: none; stroke: #332900; stroke-width: 1;}
    .bold-line            {stroke: #141000; shape-rendering: crispEdges; stroke-width: 2;}
    .thin-line            {stroke: #1F1800; shape-rendering: crispEdges}
    .filled               {fill: #332900; stroke: none;}
    text.terminal         {font-family: Verdana, Sans-serif;
                            font-size: 12px;
                            fill: #141000;
                            font-weight: bold;
                          }
    text.nonterminal      {font-family: Verdana, Sans-serif;
                            font-size: 12px;
                            fill: #1A1400;
                            font-weight: normal;
                          }
    text.regexp           {font-family: Verdana, Sans-serif;
                            font-size: 12px;
                            fill: #1F1800;
                            font-weight: normal;
                          }
    rect, circle, polygon {fill: #332900; stroke: #332900;}
    rect.terminal         {fill: #FFDB4D; stroke: #332900; stroke-width: 1;}
    rect.nonterminal      {fill: #FFEC9E; stroke: #332900; stroke-width: 1;}
    rect.text             {fill: none; stroke: none;}
    polygon.regexp        {fill: #FFF4C7; stroke: #332900; stroke-width: 1;}
  </style>
         </defs>
         <polygon points="9 33 1 29 1 37"/>
         <polygon points="17 33 9 29 9 37"/>
         <rect x="31" y="19" width="28" height="32" rx="10"/>
         <rect x="29" y="17" width="28" height="32" class="terminal" rx="10"/>
         <text class="terminal" x="39" y="37">if</text><a xmlns:xlink="http://www.w3.org/1999/xlink" xlink:href="#Expression" xlink:title="Expression">
            <rect x="79" y="19" width="90" height="32"/>
            <rect x="77" y="17" width="90" height="32" class="nonterminal"/>
            <text class="nonterminal" x="87" y="37">Expression</text></a><rect x="209" y="19" width="50" height="32" rx="10"/>
         <rect x="207" y="17" width="50" height="32" class="terminal" rx="10"/>
         <text class="terminal" x="217" y="37">then</text>
         <rect x="209" y="63" width="24" height="32" rx="10"/>
         <rect x="207" y="61" width="24" height="32" class="terminal" rx="10"/>
         <text class="terminal" x="217" y="81">:</text><a xmlns:xlink="http://www.w3.org/1999/xlink" xlink:href="#Statements" xlink:title="Statements">
            <rect x="299" y="19" width="94" height="32"/>
            <rect x="297" y="17" width="94" height="32" class="nonterminal"/>
            <text class="nonterminal" x="307" y="37">Statements</text></a><rect x="453" y="19" width="56" height="32" rx="10"/>
         <rect x="451" y="17" width="56" height="32" class="terminal" rx="10"/>
         <text class="terminal" x="461" y="37">elseif</text><a xmlns:xlink="http://www.w3.org/1999/xlink" xlink:href="#Expression" xlink:title="Expression">
            <rect x="529" y="19" width="90" height="32"/>
            <rect x="527" y="17" width="90" height="32" class="nonterminal"/>
            <text class="nonterminal" x="537" y="37">Expression</text></a><rect x="659" y="19" width="50" height="32" rx="10"/>
         <rect x="657" y="17" width="50" height="32" class="terminal" rx="10"/>
         <text class="terminal" x="667" y="37">then</text>
         <rect x="659" y="63" width="24" height="32" rx="10"/>
         <rect x="657" y="61" width="24" height="32" class="terminal" rx="10"/>
         <text class="terminal" x="667" y="81">:</text><a xmlns:xlink="http://www.w3.org/1999/xlink" xlink:href="#Statments" xlink:title="Statments">
            <rect x="749" y="19" width="86" height="32"/>
            <rect x="747" y="17" width="86" height="32" class="nonterminal"/>
            <text class="nonterminal" x="757" y="37">Statments</text></a><rect x="491" y="177" width="46" height="32" rx="10"/>
         <rect x="489" y="175" width="46" height="32" class="terminal" rx="10"/>
         <text class="terminal" x="499" y="195">else</text>
         <rect x="577" y="209" width="24" height="32" rx="10"/>
         <rect x="575" y="207" width="24" height="32" class="terminal" rx="10"/>
         <text class="terminal" x="585" y="227">:</text><a xmlns:xlink="http://www.w3.org/1999/xlink" xlink:href="#Statements" xlink:title="Statements">
            <rect x="641" y="177" width="94" height="32"/>
            <rect x="639" y="175" width="94" height="32" class="nonterminal"/>
            <text class="nonterminal" x="649" y="195">Statements</text></a><rect x="795" y="145" width="54" height="32" rx="10"/>
         <rect x="793" y="143" width="54" height="32" class="terminal" rx="10"/>
         <text class="terminal" x="803" y="163">endif</text>
         <rect x="795" y="189" width="44" height="32" rx="10"/>
         <rect x="793" y="187" width="44" height="32" class="terminal" rx="10"/>
         <text class="terminal" x="803" y="207">end</text>
         <path xmlns:svg="http://www.w3.org/2000/svg" class="line" d="m17 33 h2 m0 0 h10 m28 0 h10 m0 0 h10 m90 0 h10 m20 0 h10 m50 0 h10 m-90 0 h20 m70 0 h20 m-110 0 q10 0 10 10 m90 0 q0 -10 10 -10 m-100 10 v24 m90 0 v-24 m-90 24 q0 10 10 10 m70 0 q10 0 10 -10 m-80 10 h10 m24 0 h10 m0 0 h26 m20 -44 h10 m94 0 h10 m40 0 h10 m56 0 h10 m0 0 h10 m90 0 h10 m20 0 h10 m50 0 h10 m-90 0 h20 m70 0 h20 m-110 0 q10 0 10 10 m90 0 q0 -10 10 -10 m-100 10 v24 m90 0 v-24 m-90 24 q0 10 10 10 m70 0 q10 0 10 -10 m-80 10 h10 m24 0 h10 m0 0 h26 m20 -44 h10 m86 0 h10 m-422 0 l20 0 m-1 0 q-9 0 -9 -10 l0 -12 q0 -10 10 -10 m402 32 l20 0 m-20 0 q10 0 10 -10 l0 -12 q0 -10 -10 -10 m-402 0 h10 m0 0 h392 m-442 32 h20 m442 0 h20 m-482 0 q10 0 10 10 m462 0 q0 -10 10 -10 m-472 10 v58 m462 0 v-58 m-462 58 q0 10 10 10 m442 0 q10 0 10 -10 m-452 10 h10 m0 0 h432 m22 -78 l2 0 m2 0 l2 0 m2 0 l2 0 m-448 126 l2 0 m2 0 l2 0 m2 0 l2 0 m22 0 h10 m0 0 h254 m-284 0 h20 m264 0 h20 m-304 0 q10 0 10 10 m284 0 q0 -10 10 -10 m-294 10 v12 m284 0 v-12 m-284 12 q0 10 10 10 m264 0 q10 0 10 -10 m-274 10 h10 m46 0 h10 m20 0 h10 m0 0 h34 m-64 0 h20 m44 0 h20 m-84 0 q10 0 10 10 m64 0 q0 -10 10 -10 m-74 10 v12 m64 0 v-12 m-64 12 q0 10 10 10 m44 0 q10 0 10 -10 m-54 10 h10 m24 0 h10 m20 -32 h10 m94 0 h10 m40 -32 h10 m54 0 h10 m-94 0 h20 m74 0 h20 m-114 0 q10 0 10 10 m94 0 q0 -10 10 -10 m-104 10 v24 m94 0 v-24 m-94 24 q0 10 10 10 m74 0 q10 0 10 -10 m-84 10 h10 m44 0 h10 m0 0 h10 m23 -44 h-3"/>
         <polygon points="887 159 895 155 895 163"/>
         <polygon points="887 159 879 155 879 163"/></svg>
