<svg xmlns="http://www.w3.org/2000/svg" width="717" height="189">
         <defs>
            <style type="text/css">
    @namespace "http://www.w3.org/2000/svg";
    .line                 {fill: none; stroke: #332900; stroke-width: 1;}
    .bold-line            {stroke: #141000; shape-rendering: crispEdges; stroke-width: 2;}
    .thin-line            {stroke: #1F1800; shape-rendering: crispEdges}
    .filled               {fill: #332900; stroke: none;}
    text.terminal         {font-family: Verdana, Sans-serif;
                            font-size: 12px;
                            fill: #141000;
                            font-weight: bold;
                          }
    text.nonterminal      {font-family: Verdana, Sans-serif;
                            font-size: 12px;
                            fill: #1A1400;
                            font-weight: normal;
                          }
    text.regexp           {font-family: Verdana, Sans-serif;
                            font-size: 12px;
                            fill: #1F1800;
                            font-weight: normal;
                          }
    rect, circle, polygon {fill: #332900; stroke: #332900;}
    rect.terminal         {fill: #FFDB4D; stroke: #332900; stroke-width: 1;}
    rect.nonterminal      {fill: #FFEC9E; stroke: #332900; stroke-width: 1;}
    rect.text             {fill: none; stroke: none;}
    polygon.regexp        {fill: #FFF4C7; stroke: #332900; stroke-width: 1;}
  </style>
         </defs>
    <polygon points="9 105 1 101 1 109"/>
    <polygon points="17 105 9 101 9 109"/><a xmlns:xlink="http://www.w3.org/1999/xlink" xlink:href="#Expression" xlink:title="Expression">
       <rect x="51" y="91" width="90" height="32"/>
       <rect x="49" y="89" width="90" height="32" class="nonterminal"/>
       <text class="nonterminal" x="59" y="109">Expression</text></a><rect x="181" y="91" width="50" height="32" rx="10"/>
    <rect x="179" y="89" width="50" height="32" class="terminal" rx="10"/>
    <text class="terminal" x="189" y="109">then</text>
    <rect x="181" y="135" width="24" height="32" rx="10"/>
    <rect x="179" y="133" width="24" height="32" class="terminal" rx="10"/>
    <text class="terminal" x="189" y="153">:</text><a xmlns:xlink="http://www.w3.org/1999/xlink" xlink:href="#Statements" xlink:title="Statements">
       <rect x="271" y="91" width="94" height="32"/>
       <rect x="269" y="89" width="94" height="32" class="nonterminal"/>
       <text class="nonterminal" x="279" y="109">Statements</text></a><rect x="51" y="47" width="56" height="32" rx="10"/>
    <rect x="49" y="45" width="56" height="32" class="terminal" rx="10"/>
    <text class="terminal" x="59" y="65">elseif</text>
    <rect x="51" y="3" width="78" height="32" rx="10"/>
    <rect x="49" y="1" width="78" height="32" class="terminal" rx="10"/>
    <text class="terminal" x="59" y="21">elseifnot</text>
    <rect x="425" y="123" width="46" height="32" rx="10"/>
    <rect x="423" y="121" width="46" height="32" class="terminal" rx="10"/>
    <text class="terminal" x="433" y="141">else</text>
    <rect x="511" y="155" width="24" height="32" rx="10"/>
    <rect x="509" y="153" width="24" height="32" class="terminal" rx="10"/>
    <text class="terminal" x="519" y="173">:</text><a xmlns:xlink="http://www.w3.org/1999/xlink" xlink:href="#Statements" xlink:title="Statements">
       <rect x="575" y="123" width="94" height="32"/>
       <rect x="573" y="121" width="94" height="32" class="nonterminal"/>
       <text class="nonterminal" x="583" y="141">Statements</text></a><path class="line" d="m17 105 h2 m20 0 h10 m90 0 h10 m20 0 h10 m50 0 h10 m-90 0 h20 m70 0 h20 m-110 0 q10 0 10 10 m90 0 q0 -10 10 -10 m-100 10 v24 m90 0 v-24 m-90 24 q0 10 10 10 m70 0 q10 0 10 -10 m-80 10 h10 m24 0 h10 m0 0 h26 m20 -44 h10 m94 0 h10 m-354 0 l20 0 m-1 0 q-9 0 -9 -10 l0 -24 q0 -10 10 -10 m334 44 l20 0 m-20 0 q10 0 10 -10 l0 -24 q0 -10 -10 -10 m-334 0 h10 m56 0 h10 m0 0 h258 m-344 10 l0 -44 q0 -10 10 -10 m344 54 l0 -44 q0 -10 -10 -10 m-334 0 h10 m78 0 h10 m0 0 h236 m40 88 h10 m0 0 h254 m-284 0 h20 m264 0 h20 m-304 0 q10 0 10 10 m284 0 q0 -10 10 -10 m-294 10 v12 m284 0 v-12 m-284 12 q0 10 10 10 m264 0 q10 0 10 -10 m-274 10 h10 m46 0 h10 m20 0 h10 m0 0 h34 m-64 0 h20 m44 0 h20 m-84 0 q10 0 10 10 m64 0 q0 -10 10 -10 m-74 10 v12 m64 0 v-12 m-64 12 q0 10 10 10 m44 0 q10 0 10 -10 m-54 10 h10 m24 0 h10 m20 -32 h10 m94 0 h10 m23 -32 h-3"/>
    <polygon points="707 105 715 101 715 109"/>
    <polygon points="707 105 699 101 699 109"/></svg>