<svg xmlns="http://www.w3.org/2000/svg" width="415" height="157">
         <defs>
            <style type="text/css">
    @namespace "http://www.w3.org/2000/svg";
    .line                 {fill: none; stroke: #332900; stroke-width: 1;}
    .bold-line            {stroke: #141000; shape-rendering: crispEdges; stroke-width: 2;}
    .thin-line            {stroke: #1F1800; shape-rendering: crispEdges}
    .filled               {fill: #332900; stroke: none;}
    text.terminal         {font-family: Verdana, Sans-serif;
                            font-size: 12px;
                            fill: #141000;
                            font-weight: bold;
                          }
    text.nonterminal      {font-family: Verdana, Sans-serif;
                            font-size: 12px;
                            fill: #1A1400;
                            font-weight: normal;
                          }
    text.regexp           {font-family: Verdana, Sans-serif;
                            font-size: 12px;
                            fill: #1F1800;
                            font-weight: normal;
                          }
    rect, circle, polygon {fill: #332900; stroke: #332900;}
    rect.terminal         {fill: #FFDB4D; stroke: #332900; stroke-width: 1;}
    rect.nonterminal      {fill: #FFEC9E; stroke: #332900; stroke-width: 1;}
    rect.text             {fill: none; stroke: none;}
    polygon.regexp        {fill: #FFF4C7; stroke: #332900; stroke-width: 1;}
  </style>
         </defs>
         <polygon points="9 17 1 13 1 21"/>
         <polygon points="17 17 9 13 9 21"/>
         <rect x="51" y="35" width="42" height="32" rx="10"/>
         <rect x="49" y="33" width="42" height="32" class="terminal" rx="10"/>
         <text class="terminal" x="59" y="53">var</text>
         <rect x="51" y="79" width="40" height="32" rx="10"/>
         <rect x="49" y="77" width="40" height="32" class="terminal" rx="10"/>
         <text class="terminal" x="59" y="97">val</text>
         <rect x="51" y="123" width="56" height="32" rx="10"/>
         <rect x="49" y="121" width="56" height="32" class="terminal" rx="10"/>
         <text class="terminal" x="59" y="141">const</text><a xmlns:xlink="http://www.w3.org/1999/xlink" xlink:href="#Identifier" xlink:title="Identifier">
            <rect x="147" y="3" width="78" height="32"/>
            <rect x="145" y="1" width="78" height="32" class="nonterminal"/>
            <text class="nonterminal" x="155" y="21">Identifier</text></a><rect x="245" y="3" width="32" height="32" rx="10"/>
         <rect x="243" y="1" width="32" height="32" class="terminal" rx="10"/>
         <text class="terminal" x="253" y="21">in</text><a xmlns:xlink="http://www.w3.org/1999/xlink" xlink:href="#Expression" xlink:title="Expression">
            <rect x="297" y="3" width="90" height="32"/>
            <rect x="295" y="1" width="90" height="32" class="nonterminal"/>
            <text class="nonterminal" x="305" y="21">Expression</text></a><path xmlns:svg="http://www.w3.org/2000/svg" class="line" d="m17 17 h2 m20 0 h10 m0 0 h66 m-96 0 h20 m76 0 h20 m-116 0 q10 0 10 10 m96 0 q0 -10 10 -10 m-106 10 v12 m96 0 v-12 m-96 12 q0 10 10 10 m76 0 q10 0 10 -10 m-86 10 h10 m42 0 h10 m0 0 h14 m-86 -10 v20 m96 0 v-20 m-96 20 v24 m96 0 v-24 m-96 24 q0 10 10 10 m76 0 q10 0 10 -10 m-86 10 h10 m40 0 h10 m0 0 h16 m-86 -10 v20 m96 0 v-20 m-96 20 v24 m96 0 v-24 m-96 24 q0 10 10 10 m76 0 q10 0 10 -10 m-86 10 h10 m56 0 h10 m20 -120 h10 m78 0 h10 m0 0 h10 m32 0 h10 m0 0 h10 m90 0 h10 m3 0 h-3"/>
         <polygon points="405 17 413 13 413 21"/>
         <polygon points="405 17 397 13 397 21"/></svg>